# xmcd
#
# Track frame offsets:
#	150
#	16841
#	31522
#	49411
#	65460
#	79762
#	97461
#	114018
#	130667
#	150219
#	166731
#	179258
#	197585
#	218345
#	233880
#	251676
#	268655
#	283640
#	299795
#	317608
#	334758
#
# Disc length: 4679 seconds
#
# Revision: 0
# Processed by: cddbd v1.5.2PL0 Copyright (c) Steve Scherf et al.
# Submitted via: dBpowerAMP V4.0
#
DISCID=1d124515
DTITLE=Various Artist - ERG Nu Country Traxx Vol. 230 CAN
DYEAR=2013
DGENRE=Country
TTITLE0=Taylor Swift - Red
TTITLE1=Wes Mack ft. Carly McKillip - Duet
TTITLE2=Tim McGraw - Southern Girl
TTITLE3=Toby Keith - Drinks After Work
TTITLE4=Darius Rucker - Radio
TTITLE5=Emerson Drive - She Always Gets What She Wants
TTITLE6=Jess Moskaluke - Everything Falls
TTITLE7=Miranda Lambert - All Kinds Of Kinds
TTITLE8=Brett Kissel - Started With A Song
TTITLE9=Eli Young Band - Drunk Last Night
TTITLE10=Kelly Clarkson - Tie It Up
TTITLE11=Chris Stapleton - What Are You Listnening To
TTITLE12=Bryce Pallister - Bourbon
TTITLE13=Andy Gibson - Best Thing
TTITLE14=Gwen Sebastian - Suitcase
TTITLE15=George Strait - I Believe
TTITLE16=Craig Morgan - Wake Up Lovin You
TTITLE17=Hey Romeo - Twist Of Fate
TTITLE18=Quentin Reddy - Beautiful Crazy Life
TTITLE19=Henningsens  - I Miss You
TTITLE20=Brad Paisley  - Beat This Summer [Acoustic Mix]
EXTD=
EXTT0=
EXTT1=
EXTT2=
EXTT3=
EXTT4=
EXTT5=
EXTT6=
EXTT7=
EXTT8=
EXTT9=
EXTT10=
EXTT11=
EXTT12=
EXTT13=
EXTT14=
EXTT15=
EXTT16=
EXTT17=
EXTT18=
EXTT19=
EXTT20=
PLAYORDER=
